<?xml version="1.0" encoding="UTF-8" standalone="no"?>
<!-- Created with Inkscape (http://www.inkscape.org/) -->

<svg
   width="276.22174mm"
   height="45.524883mm"
   viewBox="0 0 276.22174 45.524883"
   version="1.1"
   id="svg5"
   inkscape:version="1.2 (dc2aedaf03, 2022-05-15)"
   sodipodi:docname="logo.svg"
   xmlns:inkscape="http://www.inkscape.org/namespaces/inkscape"
   xmlns:sodipodi="http://sodipodi.sourceforge.net/DTD/sodipodi-0.dtd"
   xmlns="http://www.w3.org/2000/svg"
   xmlns:svg="http://www.w3.org/2000/svg">
  <sodipodi:namedview
     id="namedview7"
     pagecolor="#505050"
     bordercolor="#eeeeee"
     borderopacity="1"
     inkscape:showpageshadow="0"
     inkscape:pageopacity="0"
     inkscape:pagecheckerboard="0"
     inkscape:deskcolor="#505050"
     inkscape:document-units="mm"
     showgrid="false"
     inkscape:zoom="1"
     inkscape:cx="656"
     inkscape:cy="-124"
     inkscape:window-width="2560"
     inkscape:window-height="1377"
     inkscape:window-x="-8"
     inkscape:window-y="-8"
     inkscape:window-maximized="1"
     inkscape:current-layer="layer1" />
  <defs
     id="defs2" />
  <g
     inkscape:label="Capa 1"
     inkscape:groupmode="layer"
     id="layer1"
     transform="translate(32.219342,-120.78242)">
    <g
       aria-label="I4TechLab"
       id="text186"
       style="font-weight:bold;font-size:60.5029px;font-family:'Segoe UI';-inkscape-font-specification:'Segoe UI Bold';fill:#ffffff;stroke-width:5.21661;stroke-linecap:round"
       transform="translate(-49.2125,36.5125)">
      <path
         d="M 26.535363,129.05624 H 16.993158 V 86.692398 h 9.542205 z"
         style="stroke-width:5.21659"
         id="path1113" />
      <path
         d="m 59.445632,86.692398 v 26.706362 h 5.081298 v 6.97201 h -5.081298 v 8.68547 h -8.50822 v -8.68547 h -18.46402 v -7.29698 q 2.452022,-2.74745 5.081299,-5.99711 2.629276,-3.27921 5.081298,-6.73568 2.452022,-3.456464 4.549534,-6.942471 2.127055,-3.515549 3.604177,-6.706131 z M 40.8339,113.39876 H 50.937412 V 98.597997 q -1.033985,1.920263 -2.245225,3.899603 -1.21124,1.9498 -2.540649,3.87006 -1.329409,1.89071 -2.688361,3.6928 -1.358952,1.77255 -2.629277,3.3383 z"
         style="stroke-width:5.21659"
         id="path1115" />
      <path
         d="M 100.71641,94.462057 H 88.633554 V 129.05624 H 79.061806 V 94.462057 h -12.02377 v -7.769659 h 33.678374 z"
         style="stroke-width:5.21659"
         id="path1117" />
      <path
         d="m 127.24551,116.58934 h -19.73434 q 0.47268,6.58796 8.30142,6.58796 4.99267,0 8.77411,-2.36339 v 6.73567 q -4.19503,2.24522 -10.90116,2.24522 -7.32652,0 -11.37384,-4.04731 -4.04731,-4.07685 -4.04731,-11.34429 0,-7.53332 4.37228,-11.93514 4.37228,-4.401826 10.75344,-4.401826 6.61751,0 10.22169,3.929146 3.63371,3.92914 3.63371,10.66481 z m -8.65593,-5.73123 q 0,-6.49934 -5.25855,-6.49934 -2.24522,0 -3.8996,1.86117 -1.62483,1.86118 -1.97934,4.63817 z"
         style="stroke-width:5.21659"
         id="path1119" />
      <path
         d="m 155.72441,127.96317 q -3.16104,1.83163 -9.12861,1.83163 -6.97201,0 -11.28521,-4.22456 -4.31319,-4.22457 -4.31319,-10.90116 0,-7.71057 4.60862,-12.14194 4.63816,-4.460906 12.37828,-4.460906 5.34718,0 7.74011,1.418036 v 7.91737 q -2.9247,-2.18614 -6.52887,-2.18614 -4.01777,0 -6.38117,2.3634 -2.33385,2.33385 -2.33385,6.46979 0,4.01777 2.24522,6.32208 2.24523,2.27477 6.17437,2.27477 3.48601,0 6.8243,-2.18614 z"
         style="stroke-width:5.21659"
         id="path1121" />
      <path
         d="m 190.87991,129.05624 h -9.30586 v -17.19369 q 0,-6.64705 -4.84496,-6.64705 -2.48157,0 -4.01777,1.86118 -1.53621,1.86117 -1.53621,4.72678 v 17.25278 H 161.8397 V 84.269918 h 9.33541 v 19.025322 h 0.11817 q 3.42692,-5.229006 9.30587,-5.229006 10.28076,0 10.28076,12.407816 z"
         style="stroke-width:5.21659"
         id="path1123" />
      <path
         d="M 224.41057,129.05624 H 199.18133 V 86.692398 h 9.5422 v 34.623732 h 15.68704 z"
         style="stroke-width:5.21659"
         id="path1125" />
      <path
         d="m 254.36659,129.05624 h -8.83319 v -4.34273 h -0.11817 q -3.04287,5.08129 -9.01044,5.08129 -4.40182,0 -6.94247,-2.48156 -2.51111,-2.51111 -2.51111,-6.67659 0,-8.80364 10.42848,-10.1626 l 8.2128,-1.09307 q 0,-4.96312 -5.37673,-4.96312 -5.40626,0 -10.28076,3.22012 v -7.0311 q 1.9498,-1.00444 5.31764,-1.772543 3.39738,-0.768103 6.17436,-0.768103 12.93959,0 12.93959,12.910046 z m -8.7741,-12.28965 v -2.03843 l -5.4949,0.70902 q -4.54953,0.59085 -4.54953,4.1064 0,1.59529 1.09307,2.62928 1.12261,1.00444 3.01333,1.00444 2.62927,0 4.28365,-1.80209 1.65438,-1.83163 1.65438,-4.60862 z"
         style="stroke-width:5.21659"
         id="path1127" />
      <path
         d="m 271.20579,125.54069 h -0.11817 v 3.51555 h -9.33541 V 84.269918 h 9.33541 v 19.084412 h 0.11817 q 3.45646,-5.288096 9.83763,-5.288096 5.8494,0 9.01044,4.017766 3.16104,4.01777 3.16104,10.98979 0,7.56286 -3.69281,12.14194 -3.6928,4.57907 -9.86717,4.57907 -5.58352,0 -8.44913,-4.25411 z m -0.26589,-12.76233 v 3.10196 q 0,2.9247 1.68392,4.84496 1.68392,1.92026 4.3132,1.92026 3.19058,0 4.93358,-2.45203 1.77255,-2.48156 1.77255,-7.00155 0,-3.75189 -1.62483,-5.8494 -1.5953,-2.12706 -4.57908,-2.12706 -2.80653,0 -4.6677,2.09751 -1.83164,2.09752 -1.83164,5.46535 z"
         style="stroke-width:5.21659"
         id="path1129" />
    </g>
  </g>
</svg>
